<?xml version="1.0" standalone="no"?>
<!DOCTYPE svg PUBLIC "-//W3C//DTD SVG 20010904//EN"
 "http://www.w3.org/TR/2001/REC-SVG-20010904/DTD/svg10.dtd">
<svg version="1.0" xmlns="http://www.w3.org/2000/svg"
 width="1123.000000pt" height="1123.000000pt" viewBox="0 0 1123.000000 1123.000000"
 preserveAspectRatio="xMidYMid meet">
<metadata>
Created by potrace 1.11, written by Peter Selinger 2001-2013
</metadata>
<g transform="translate(0.000000,1123.000000) scale(0.100000,-0.100000)"
fill="#000000" stroke="none">
<path d="M5260 7670 c-354 -46 -700 -223 -948 -484 -206 -217 -339 -472 -403
-771 -20 -94 -24 -138 -24 -305 0 -167 4 -211 24 -305 109 -512 441 -921 920
-1133 316 -140 688 -173 1026 -91 300 74 535 207 761 433 223 224 365 488 431
806 25 121 25 459 0 580 -67 321 -208 583 -436 810 -233 233 -487 371 -811
441 -107 23 -424 34 -540 19z m417 -606 c101 -20 192 -56 276 -105 l67 -40 0
-114 0 -115 -79 64 c-134 109 -247 150 -406 150 -101 -1 -195 -22 -267 -61
-118 -64 -218 -208 -252 -365 l-6 -28 385 0 385 0 -32 -65 -32 -65 -361 -2
-360 -3 0 -125 0 -125 292 -5 291 -5 -35 -62 -35 -63 -249 0 -249 0 6 -27 c24
-108 82 -221 149 -288 68 -67 156 -112 257 -132 196 -37 382 18 544 161 l54
47 0 -115 0 -115 -68 -41 c-138 -82 -278 -120 -434 -120 -390 2 -664 207 -754
564 l-16 66 -134 0 c-81 0 -134 4 -134 10 0 5 12 34 27 64 l27 55 95 3 96 3 0
125 0 125 -126 3 -126 3 34 64 34 65 104 0 103 0 18 72 c9 40 37 113 62 163
36 72 62 107 131 176 72 73 101 94 182 133 162 79 366 105 536 70z"/>
</g>
</svg>
